<?xml version="1.0" encoding="UTF-8"?>
<svg version="1.1" viewBox="0 -50 604.29 611.73" xmlns="http://www.w3.org/2000/svg" xmlns:cc="http://creativecommons.org/ns#" xmlns:dc="http://purl.org/dc/elements/1.1/" xmlns:rdf="http://www.w3.org/1999/02/22-rdf-syntax-ns#" xmlns:xlink="http://www.w3.org/1999/xlink">
 <metadata>
  <rdf:RDF>
   <cc:Work rdf:about="">
    <dc:format>image/svg+xml</dc:format>
    <dc:type rdf:resource="http://purl.org/dc/dcmitype/StillImage"/>
    <dc:title>smartphone</dc:title>
   </cc:Work>
  </rdf:RDF>
 </metadata>
 <defs>
  <style>.a,.i{fill:#564843;}.b{fill:#443833;}.b,.e,.f,.g,.h,.i,.j,.k,.l,.m,.n,.o{fill-rule:evenodd;}.c{fill:#ded3d0;}.d,.j{fill:#f5efef;}.e{fill:#9f2f60;}.f{fill:#f2a273;}.g{fill:#e3844e;}.h,.o{fill:#fff;}.k{fill:#beaea9;}.l{fill:#0b6d91;}.m{fill:#31a2cc;}.n{fill:#6fc8ee;}.o{opacity:0.2;}.p{fill:#edeced;}.q{fill:#1d1d1b;}.r{fill:#43ade2;}.s{fill:#ffdd67;}.t{fill:#eba353;}.u{fill:url(#a);}.v{fill:#15162e;}.w{fill:url(#b);}.x{fill:url(#c);}.y{fill:url(#d);}.z{fill:url(#e);}.aa{fill:none;stroke-miterlimit:10;stroke:url(#f);}</style>
  <style>#bubble {
     transition: transform .6s ease;
   }

   svg:hover #bubble {
     transform: translateY(-50px);
   }</style>
  <linearGradient id="a" x1="125.3" x2="187.3" y1="186" y2="206" gradientTransform="translate(329.66 -136.55) rotate(45)" gradientUnits="userSpaceOnUse">
   <stop stop-color="#dc4692" offset="0"/>
   <stop stop-color="#59c1d3" offset="1"/>
  </linearGradient>
  <linearGradient id="b" x1="134.43" x2="196.43" y1="157.7" y2="177.71" xlink:href="#a"/>
  <linearGradient id="c" x1="116.17" x2="178.18" y1="214.29" y2="234.3" xlink:href="#a"/>
  <linearGradient id="d" x1="125.41" x2="187.41" y1="185.67" y2="205.68" xlink:href="#a"/>
  <linearGradient id="e" x1="125.2" x2="187.2" y1="186.32" y2="206.33" xlink:href="#a"/>
  <linearGradient id="f" x1="152.37" x2="160.69" y1="191.92" y2="200.23" gradientTransform="translate(329.66 -136.55) rotate(45)" gradientUnits="userSpaceOnUse">
   <stop stop-color="#76ccf4" offset="0"/>
   <stop stop-color="#d376ad" offset="1"/>
  </linearGradient>
 </defs>
 <title>smartphone</title>
 <rect class="a" x="589.35" y="116.95" width="14.94" height="66.15"/>
 <path class="b" transform="translate(-9.89 -43.91)" d="m356.66 99.74a755.44 755.44 0 0 1 254.39 0v471.68a755.7 755.7 0 0 1-254.39 0z"/>
 <rect class="c" x="359.23" y="96.11" width="229.49" height="391.12"/>
 <circle class="d" transform="translate(-32.93 313.52) rotate(-45)" cx="419.94" cy="206.54" r="44.94"/>
 <path class="e" transform="translate(-9.89 -43.91)" d="m410 230.07h19.84c8.15 0 11.47 1.07 13.29 10.75l0.71 3.77a45 45 0 0 1-47.84 0l0.71-3.77c1.85-9.68 5.16-10.75 13.29-10.75z"/>
 <path class="f" transform="translate(-9.89 -43.91)" d="m413.35 216.08h13.19v15a6.62 6.62 0 0 1-6.6 6.59 6.61 6.61 0 0 1-6.59-6.59z"/>
 <path class="g" transform="translate(-9.89 -43.91)" d="m413.35 216.08h13.19v12a20.39 20.39 0 0 1-3.68 0.33 21 21 0 0 1-9.51-2.28z"/>
 <path class="f" transform="translate(-9.89 -43.91)" d="m419.94 179.35a21.16 21.16 0 0 1 21.1 21.1v4.48a21.16 21.16 0 0 1-21.1 21.1 21.16 21.16 0 0 1-21.1-21.1v-4.48a21.16 21.16 0 0 1 21.1-21.1z"/>
 <path class="h" transform="translate(-9.89 -43.91)" d="m429.85 216.39a11.36 11.36 0 0 1-9.91 5.85 11.36 11.36 0 0 1-9.91-5.85z"/>
 <path class="i" transform="translate(-9.89 -43.91)" d="m409.07 179.35h21.74a10.26 10.26 0 0 1 10.19 10.23 10.26 10.26 0 0 1-10.23 10.23h-21.7a10.26 10.26 0 0 1-10.23-10.23 10.26 10.26 0 0 1 10.23-10.23z"/>
 <rect class="a" x="386.5" y="128.72" width="25.9" height="27.18" rx="12.95"/>
 <rect class="a" x="396.54" y="159.29" width="9.95" height="3.12" rx="1.56"/>
 <rect class="a" x="399.97" y="160.33" width="4.12" height="5.76" rx="2.06"/>
 <rect class="a" x="413.62" y="159.29" width="9.95" height="3.12" rx="1.56"/>
 <rect class="a" x="416.02" y="160.33" width="4.12" height="5.76" rx="2.06"/>
 <path class="j" transform="translate(-9.89 -43.91)" d="m410 263.86h53.09l-7.07-17.26 28.22 17.26h74.26a26.68 26.68 0 0 1 26.6 26.6 26.68 26.68 0 0 1-26.6 26.6h-148.5a26.68 26.68 0 0 1-26.6-26.6 26.68 26.68 0 0 1 26.6-26.6z"/>
 <path class="k" transform="translate(-9.89 -43.91)" d="m420.41 279.68h126.9a3.06 3.06 0 0 1 3.05 3.05 3.06 3.06 0 0 1-3.05 3.06h-126.9a3.07 3.07 0 0 1-3.06-3.06 3.06 3.06 0 0 1 3.06-3.05zm0 15.45h80.17a3.06 3.06 0 0 1 3.05 3.06 3.06 3.06 0 0 1-3.05 3.06h-80.17a3.07 3.07 0 0 1-3.06-3.06 3.07 3.07 0 0 1 3.06-3.06z"/>
 <circle class="d" transform="matrix(1 -.03 .03 1 -22.17 -25.67)" cx="540.17" cy="377.2" r="44.94"/>
 <path class="j" transform="translate(-9.89 -43.91)" d="m550.08 434.51h-53.08l7.07-17.25-28.22 17.25h-74.24a26.68 26.68 0 0 0-26.61 26.61 26.68 26.68 0 0 0 26.6 26.6h148.48a26.68 26.68 0 0 0 26.6-26.6 26.68 26.68 0 0 0-26.6-26.61z"/>
 <path class="k" transform="translate(-9.89 -43.91)" d="m412.8 450.33h126.9a3.06 3.06 0 0 1 3 3.06 3.06 3.06 0 0 1-3 3.05h-126.9a3.06 3.06 0 0 1-3.05-3.05 3.06 3.06 0 0 1 3.05-3.06zm0 15.46h80.2a3.06 3.06 0 0 1 3 3 3.06 3.06 0 0 1-3 3.06h-80.2a3.06 3.06 0 0 1-3.05-3.06 3.06 3.06 0 0 1 3.05-3z"/>
 <path class="i" transform="translate(-9.89 -43.91)" d="m514.83 366h50.68a8.84 8.84 0 0 1 8.81 8.81 8.84 8.84 0 0 1-8.81 8.81h-50.68a8.84 8.84 0 0 1-8.81-8.81 8.84 8.84 0 0 1 8.81-8.81z"/>
 <path class="l" transform="translate(-9.89 -43.91)" d="m536 388.11h8.27a1.53 1.53 0 0 1 1.53 1.52 1.54 1.54 0 0 1-1.53 1.53h-8.27a1.53 1.53 0 0 1-1.52-1.53 1.52 1.52 0 0 1 1.52-1.52z"/>
 <path class="l" transform="translate(-9.89 -43.91)" d="m536 390.22h8.27a1.54 1.54 0 0 1 1.53 1.53 1.53 1.53 0 0 1-1.53 1.52h-8.27a1.52 1.52 0 0 1-1.52-1.52 1.53 1.53 0 0 1 1.52-1.53z"/>
 <path class="l" transform="translate(-9.89 -43.91)" d="m536 392.33h8.27a1.54 1.54 0 0 1 1.53 1.53 1.54 1.54 0 0 1-1.53 1.53h-8.27a1.53 1.53 0 0 1-1.52-1.53 1.53 1.53 0 0 1 1.52-1.53z"/>
 <path class="l" transform="translate(-9.89 -43.91)" d="m536 394.44h8.27a1.54 1.54 0 0 1 1.53 1.53 1.54 1.54 0 0 1-1.53 1.53h-8.27a1.53 1.53 0 0 1-1.52-1.53 1.53 1.53 0 0 1 1.52-1.53z"/>
 <path class="l" transform="translate(-9.89 -43.91)" d="m536 396.55h8.27a1.54 1.54 0 0 1 1.53 1.53 1.54 1.54 0 0 1-1.53 1.53h-8.27a1.53 1.53 0 0 1-1.52-1.53 1.53 1.53 0 0 1 1.52-1.53z"/>
 <path class="l" transform="translate(-9.89 -43.91)" d="m536 398.67h8.27a1.53 1.53 0 0 1 1.53 1.52 1.54 1.54 0 0 1-1.53 1.53h-8.27a1.53 1.53 0 0 1-1.52-1.53 1.52 1.52 0 0 1 1.52-1.52z"/>
 <path class="m" transform="translate(-9.89 -43.91)" d="m523.81 360.56h32.71a14.25 14.25 0 0 1 14.21 14.2 14.25 14.25 0 0 1-14.21 14.24h-32.71a14.24 14.24 0 0 1-14.2-14.2 14.24 14.24 0 0 1 14.2-14.24z"/>
 <path class="n" transform="translate(-9.89 -43.91)" d="m527.23 366.85h25.88a7.93 7.93 0 0 1 7.91 7.91 7.93 7.93 0 0 1-7.91 7.91h-25.88a7.93 7.93 0 0 1-7.91-7.91 7.93 7.93 0 0 1 7.91-7.91z"/>
 <path class="h" transform="translate(-9.89 -43.91)" d="m530.73 368.11a4.59 4.59 0 1 1-4.58 4.58 4.59 4.59 0 0 1 4.58-4.58zm18.88 0a4.59 4.59 0 1 1-4.59 4.58 4.58 4.58 0 0 1 4.59-4.58z"/>
 <path class="l" transform="translate(-9.89 -43.91)" d="M533.2,384.38h13.93a1,1,0,0,1,1,.94h0a1,1,0,0,1-1,.94H533.2a.94.94,0,0,1-.94-.94h0A.94.94,0,0,1,533.2,384.38Z"/>
 <path class="m" transform="translate(-9.89 -43.91)" d="m523.81 401.36h32.71a14.26 14.26 0 0 1 13.4 9.51 44.94 44.94 0 0 1-59.51 0 14.28 14.28 0 0 1 13.4-9.51z"/>
 <path class="n" transform="translate(-9.89 -43.91)" d="m535.81 407.65h8.72a14.26 14.26 0 0 1 13.75 10.68 45.05 45.05 0 0 1-36.22 0 14.25 14.25 0 0 1 13.75-10.68z"/>
 <path class="o" transform="translate(-9.89 -43.91)" d="M356.66,99.74A753.89,753.89,0,0,1,549.08,91.8L411.65,578.73q-27.5-2.64-55-7.31Z"/>
 <ellipse class="p" cx="473.66" cy="553.1" rx="112.52" ry="8.63"/>
 <rect class="a" x="343.03" y="121.99" width="19.05" height="34.87"/>
 <rect class="a" x="343.03" y="166.2" width="19.05" height="34.87"/>
 <g id="bubble">
  <circle class="d" transform="translate(-13.48 -33.78) rotate(-1.91)" cx="301.7" cy="112.78" r="68.87"/>
  <path class="j" transform="translate(-9.89 -43.91)" d="m334.53 204.61h-98.44l13.11-32-52.33 32h-137.66a49.47 49.47 0 0 0-49.32 49.33 49.47 49.47 0 0 0 49.32 49.33h275.32a49.48 49.48 0 0 0 49.33-49.33 49.48 49.48 0 0 0-49.33-49.33z"/>
  <g transform="matrix(1.1136 0 0 1.1136 -25.356 -21.359)">
   <path class="r" transform="translate(-9.89,-43.91)" d="m301.79 234.55a2.24 2.24 0 0 1-0.37-0.1 2.28 2.28 0 0 1-0.36-0.15 4.14 4.14 0 0 1-0.68-0.39 3.72 3.72 0 0 1-1.05-1.18 3.37 3.37 0 0 1-0.46-1.51 4 4 0 0 1 0-0.77c0-0.13 0.05-0.26 0.08-0.38a2.17 2.17 0 0 1 0.12-0.36v0.37 0.37a5.55 5.55 0 0 0 0.13 0.71 4.89 4.89 0 0 0 0.51 1.3 5.14 5.14 0 0 0 0.86 1.12l0.53 0.5 0.29 0.24z"/>
   <path class="r" transform="translate(-9.89,-43.91)" d="m301.71 235.53-0.28 0.1-0.29 0.07a3.12 3.12 0 0 1-0.61 0 2.79 2.79 0 0 1-1.19-0.33 2.68 2.68 0 0 1-0.91-0.83 2.47 2.47 0 0 1-0.29-0.53l-0.09-0.28c0-0.1 0-0.2-0.05-0.3l0.2 0.22a1.29 1.29 0 0 0 0.19 0.21 4.68 4.68 0 0 0 0.38 0.39 4.44 4.44 0 0 0 0.85 0.61 4.69 4.69 0 0 0 1 0.4l0.54 0.13 0.28 0.05z"/>
   <path class="r" transform="translate(-9.89,-43.91)" d="m307.78 222.47c0.13 0 0.25 0.08 0.38 0.12l0.36 0.17a4.07 4.07 0 0 1 0.67 0.44 3.8 3.8 0 0 1 1 1.23 3.47 3.47 0 0 1 0.38 1.54 3.3 3.3 0 0 1-0.07 0.77c0 0.13-0.06 0.26-0.1 0.38a2.75 2.75 0 0 1-0.15 0.36v-0.38-0.37a5.43 5.43 0 0 0-0.1-0.72 4.51 4.51 0 0 0-0.45-1.34 5.33 5.33 0 0 0-0.82-1.16 5.19 5.19 0 0 0-0.52-0.53l-0.28-0.26z"/>
   <path class="r" transform="translate(-9.89,-43.91)" d="m310.13 222.34 0.28 0.11a1.26 1.26 0 0 1 0.26 0.13 2.69 2.69 0 0 1 1.16 1.33 2.47 2.47 0 0 1 0.16 1.17 2.79 2.79 0 0 1-0.14 0.57 1.51 1.51 0 0 1-0.12 0.26 1.65 1.65 0 0 1-0.15 0.25v-0.29a2.44 2.44 0 0 0 0-0.27 3 3 0 0 0 0-0.52 4 4 0 0 0-0.24-1 4.28 4.28 0 0 0-0.48-0.89l-0.32-0.43-0.18-0.21z"/>
   <path class="s" transform="translate(-9.89,-43.91)" d="m300.16 226.35a1.06 1.06 0 0 0-0.48 1.42l3.39 7.08 1.93-0.85-3.39-7.08a1 1 0 0 0-1.45-0.57z"/>
   <path class="s" transform="translate(-9.89,-43.91)" d="m309.07 232 2-0.95-3.87-8.05a1.1 1.1 0 0 0-1.47-0.51 1.1 1.1 0 0 0-0.51 1.48z"/>
   <path class="t" transform="translate(-9.89,-43.91)" d="m305.73 222.44-0.16 0.1a1.1 1.1 0 0 1 1.28 0.58l3.87 8.08 0.35-0.17-3.87-8.03a1.1 1.1 0 0 0-1.47-0.56z"/>
   <path class="s" transform="translate(-9.89,-43.91)" d="m305 234 2.06-1-3.95-8.24a1.14 1.14 0 0 0-1.52-0.56 1.15 1.15 0 0 0-0.53 1.53z"/>
   <path class="t" transform="translate(-9.89,-43.91)" d="m301.54 224.17a0.54 0.54 0 0 0-0.16 0.1 1.14 1.14 0 0 1 1.34 0.62l2.45 5.12 0.6 0.35-2.7-5.64a1.14 1.14 0 0 0-1.53-0.55z"/>
   <path class="s" transform="translate(-9.89,-43.91)" d="m306.69 232.3 2.06-1-3.95-8.24a1.15 1.15 0 0 0-1.52-0.55 1.16 1.16 0 0 0-0.53 1.54z"/>
   <path class="t" transform="translate(-9.89,-43.91)" d="m303.28 222.52-0.17 0.11a1.15 1.15 0 0 1 1.35 0.61l2.77 5.8 0.6 0.35-3-6.32a1.15 1.15 0 0 0-1.55-0.55z"/>
   <path class="t" transform="translate(-9.89,-43.91)" d="m300.16 226.35a1 1 0 0 0-0.17 0.1 1.06 1.06 0 0 1 1.21 0.59l2 4.21 0.6 0.35-2.26-4.73a1 1 0 0 0-1.38-0.52z"/>
   <path class="s" transform="translate(-9.89,-43.91)" d="m313.8 225.56c-0.73-0.56-1.92 0.06-2.51 2-0.4 1.36-0.45 1.74-1.31 2.15l-0.48-1s-7.62 3.68-7.33 4.28a11.09 11.09 0 0 0 2.46 4.18c2.31 2 7.71-0.15 7.95-5.26 0.15-3.01 2.02-5.73 1.22-6.35z"/>
   <path class="t" transform="translate(-9.89,-43.91)" d="m313.8 225.56a1 1 0 0 0-0.46-0.19l0.1 0.07c0.8 0.61 0 2.05-0.48 3.33a8 8 0 0 0-0.64 3.09 5.69 5.69 0 0 1-6.95 5.77 5.67 5.67 0 0 0 7.31-5.64 7.8 7.8 0 0 1 0.63-3.09c0.46-1.29 1.29-2.72 0.49-3.34z"/>
   <path class="t" transform="translate(-9.89,-43.91)" d="m310.23 229.58c-1.65 0.18-4.12 2.57-2.39 5.18-1.26-2.62 0.81-4.41 2.12-5z"/>
  </g>
  <text x="187.79738" y="192.09372" fill="#3a3c55" font-family="sans-serif" font-size="17.333px" letter-spacing="0px" text-align="center" text-anchor="middle" style="inline-size:330.212;line-height:21.67px" xml:space="preserve"><tspan x="187.79738" y="192.09372" fill="#3a3c55" font-family="'Open Sans'" font-size="17.333px" letter-spacing=".8px"><tspan font-weight="600">@atweeter</tspan><tspan font-weight="300"> unfollowed you     .</tspan><tspan dx="4.9302139" font-weight="300"/></tspan><tspan x="187.79738" y="214.21925"><tspan fill="#3a3c55" font-family="'Open Sans'" font-size="17.333px" font-weight="300" letter-spacing=".8px">This account followed you for a week</tspan><tspan y="214.21925"> </tspan></tspan><tspan x="187.79738" y="236.3448"><tspan fill="#3a3c55" font-family="'Open Sans'" font-size="17.333px" font-weight="300" letter-spacing=".8px">(last Thursday at 6:42 PM)</tspan></tspan></text>
  <text fill="black" font-family="sans-serif" font-size="40px" style="line-height:1.25;shape-inside:url(#rect870);white-space:pre" xml:space="preserve"/>
  <text x="148.27855" y="219.86694" fill="#000000" font-family="sans-serif" font-size="40px" style="line-height:1.25" xml:space="preserve"><tspan x="148.27855" y="219.86694"/></text>
  <g transform="matrix(.21302 0 0 .21302 237.38 15.159)">
   <path d="m94.041 206.16-21.28-31.283c-42.806 2.777-75.373 39.862-72.596 82.668 1.345 20.736 10.685 39.707 26.298 53.419 14.319 12.574 32.341 19.345 51.224 19.345 1.707 0 3.425-0.055 5.145-0.167l11.209-32.35z" fill="#965500"/>
   <path d="m80.804 298.86c-12.381 0.806-24.334-3.263-33.655-11.45-9.323-8.187-14.899-19.513-15.702-31.894-1.658-25.557 17.786-47.7 43.344-49.357z" fill="#d37b93"/>
   <path d="m417.96 206.16 21.279-31.281c42.806 2.776 75.373 39.861 72.596 82.667-1.346 20.736-10.685 39.708-26.299 53.419-14.319 12.573-32.341 19.344-51.224 19.344-1.707 0-3.425-0.055-5.144-0.166l-11.209-32.35v-91.633" fill="#703f00"/>
   <path d="m431.2 298.86c12.381 0.806 24.334-3.263 33.655-11.45 9.323-8.187 14.899-19.513 15.702-31.894 1.658-25.557-17.786-47.7-43.344-49.358l-6.013 92.702" fill="#9d5b6e"/>
   <path d="m173.72 429.55c-74.006-32.635-121.82-105.97-121.82-186.84 0-112.55 91.562-204.11 204.11-204.11 112.55 0 204.11 91.562 204.11 204.11 0 80.863-47.817 154.2-121.82 186.84l-164.57 2e-3" fill="#965500"/>
   <path d="m256 473.4c-57.766 0-104.76-46.996-104.76-104.76 0-10.026 1.378-19.793 4.113-29.204-36.004-13.075-61.309-47.785-61.309-87.38 0-51.233 41.682-92.915 92.915-92.915 26.865 0 51.701 11.346 69.044 30.666 17.345-19.32 42.179-30.666 69.044-30.666 51.233 0 92.914 41.682 92.914 92.915 0 39.594-25.303 74.305-61.309 87.38 2.734 9.41 4.114 19.178 4.114 29.204-1e-3 57.767-46.998 104.76-104.76 104.76" fill="#efc589"/>
   <g fill="#333">
    <path d="m206.87 378.55c0-9.058 7.261-16.393 16.183-16.393 8.934 0 16.194 7.335 16.194 16.393 0 9.056-7.26 16.399-16.194 16.399-8.922-1e-3 -16.183-7.343-16.183-16.399z"/>
    <path d="m172.98 253.8c0-11.513 9.229-20.836 20.57-20.836 11.355 0 20.582 9.324 20.582 20.836 0 11.511-9.227 20.843-20.582 20.843-11.342 0-20.57-9.332-20.57-20.843z"/>
    <path d="m339.02 253.8c0-11.597-9.288-20.998-20.724-20.998-11.451 0-20.738 9.401-20.738 20.998s9.288 20.998 20.738 20.998c11.436 0 20.724-9.4 20.724-20.998"/>
   </g>
   <path d="m484.49 311.87c-0.011 9e-3 -0.023 0.02-0.034 0.029 0.011-9e-3 0.021-0.019 0.034-0.029m0.164-0.139c-0.02 0.018-0.039 0.032-0.059 0.05 0.02-0.018 0.039-0.034 0.059-0.05m0.161-0.138c-0.023 0.02-0.045 0.038-0.068 0.057 0.024-0.02 0.045-0.038 0.068-0.057m0.168-0.144c-0.026 0.023-0.053 0.046-0.08 0.069 0.026-0.023 0.053-0.046 0.08-0.069m0.164-0.143c-0.029 0.025-0.059 0.051-0.088 0.076 0.029-0.024 0.059-0.05 0.088-0.076m0.173-0.15c-0.034 0.03-0.068 0.06-0.102 0.089 0.035-0.03 0.068-0.059 0.102-0.089m0.215-0.188c-0.053 0.047-0.106 0.093-0.159 0.139 0.053-0.046 0.107-0.093 0.159-0.139m26.314-53.657c0 5e-3 -1e-3 0.012-1e-3 0.017 1e-3 -7e-3 1e-3 -9e-3 1e-3 -0.017m0.014-0.235c0 8e-3 -1e-3 0.015-1e-3 0.023 0-7e-3 0-0.015 1e-3 -0.023m0.014-0.232c0 7e-3 -1e-3 0.013-1e-3 0.02 0-4e-3 0-0.014 1e-3 -0.02m0.012-0.23c0 5e-3 -1e-3 0.01-1e-3 0.016 0-4e-3 0-0.01 1e-3 -0.016" fill="#bdbdbf"/>
   <path d="m256.52 38.606v150.62c17.319-18.969 41.927-30.089 68.522-30.089 51.233 0 92.914 41.682 92.914 92.915 0 39.594-25.303 74.305-61.309 87.38 2.734 9.41 4.114 19.178 4.114 29.204 0 21.85-6.724 42.159-18.21 58.966 43.75-20.502 77.936-55.397 97.905-97.545 3e-3 0 5e-3 0 8e-3 -1e-3 5.335-11.26 9.654-23.035 12.869-35.193 4.438-16.778 6.773-34.281 6.773-52.153 0-10.242-0.758-20.304-2.22-30.146-1.865-12.541-4.875-24.718-8.92-36.413-4e-3 -1e-3 -7e-3 -1e-3 -0.013-2e-3 -27.607-79.807-103.41-137.32-192.43-137.54" fill="#703f00"/>
   <path d="m288.83 395.07c-9.009 0-16.316-7.397-16.316-16.521 0-9.125 7.308-16.522 16.316-16.522 8.998 0 16.306 7.397 16.306 16.522-1e-3 9.124-7.309 16.521-16.306 16.521m29.47-120.27c-11.451 0-20.738-9.401-20.738-20.998s9.288-20.998 20.738-20.998c11.436 0 20.724 9.401 20.724 20.998s-9.288 20.998-20.724 20.998m6.748-115.66c-26.596 0-51.203 11.12-68.522 30.089v284.16c35.698-0.176 67.231-18.294 86.022-45.785 3e-3 -1e-3 6e-3 -3e-3 8e-3 -4e-3 11.487-16.807 18.211-37.116 18.211-58.966 0-10.026-1.378-19.793-4.114-29.204 36.006-13.075 61.31-47.784 61.31-87.379 0-51.234-41.682-92.916-92.915-92.916" fill="#b19267"/>
   <path d="m288.83 362.03c-9.009 0-16.316 7.397-16.316 16.522 0 9.124 7.308 16.521 16.316 16.521 8.998 0 16.306-7.397 16.306-16.521-1e-3 -9.126-7.309-16.522-16.306-16.522" fill="#333"/>
  </g>
 </g>
</svg>
